# xmcd
#
# Track frame offsets:
#	150
#	14350
#	28310
#	43242
#	57602
#	70907
#	87025
#	102862
#	120425
#	135262
#	150942
#	162982
#	177650
#	192840
#	205555
#	221130
#	260400
#
# Disc length: 4530 seconds
#
# Revision: 0
# Processed by: cddbd v1.5.2PL0 Copyright (c) Steve Scherf et al.
# Submitted via: dBpowerAMP V4.0
#
DISCID=eb11b011
DTITLE=Steve Hancoff - Duke Ellington For Solo Guitar
DYEAR=1900
DGENRE=Blues
TTITLE0=Drop me off in harlem
TTITLE1=Misty morning
TTITLE2=Day dream
TTITLE3=Move over
TTITLE4=Lament for a lose love
TTITLE5=Awful sad
TTITLE6=Missisippi mian
TTITLE7=Come Sunday
TTITLE8=Morning glory
TTITLE9=Rent party blues
TTITLE10=Beautiful romance
TTITLE11=Dusk
TTITLE12=After all
TTITLE13=Have a heart
TTITLE14=Blues of the vagabond
TTITLE15=Reflections in D
TTITLE16=DATA
EXTD=
EXTT0=
EXTT1=
EXTT2=
EXTT3=
EXTT4=
EXTT5=
EXTT6=
EXTT7=
EXTT8=
EXTT9=
EXTT10=
EXTT11=
EXTT12=
EXTT13=
EXTT14=
EXTT15=
EXTT16=
PLAYORDER=
